<svg
    xmlns="http://www.w3.org/2000/svg"
    viewBox="0 0 1080 1080"
    id="vector">
    <path
        id="path"
        d="M 0 0 L 1080 0 L 1080 1080 L 0 1080 L 0 0 Z"
        fill="#3ddb85"/>
    <path
        id="path_1"
        d="M 358.16 426.43 C 358.16 426.43 331.74 371.6 296.33 414.82 C 296.77 414.19 229.38 383.84 235.08 476.5 C 235.08 476.5 184.85 474.06 181.91 529.73 C 178.97 585.4 242.72 607.73 242.72 607.73 C 242.72 607.73 232.48 647.37 271.05 645.44 C 271.05 645.44 279.77 705.47 327.86 683.59 C 327.86 683.59 334.94 713.86 356.91 701.63 C 378.88 689.4 394.84 659.06 382.89 645.89 C 382.89 645.89 428.75 659.99 445.22 624.22 C 461.67 588.45 358.16 426.43 358.16 426.43 Z"
        fill="#f7c331"/>
    <path
        id="path_2"
        d="M 447 665 L 629 665 L 629 778 L 447 778 L 447 665 Z"
        fill="#d0925d"/>
    <g id="group">
        <path
            id="path_3"
            d="M 296.11 1450.22 L 819.44 1445.11 L 850.76 994.19 C 855.41 886.96 769.17 797.77 661.84 798.82 L 421.24 801.17 C 313.92 802.22 229.43 893.07 236.17 1000.19 L 296.11 1450.22 Z"
            fill="#f1f7d3"/>
    </g>
    <g id="group_1">
        <path
            id="path_4"
            d="M 642.74 799.42 C 769.61 795 890.94 838.08 1046.3 1248.8 L 856.61 1261.65 L 626.34 1024.53 C 626.34 1024.53 586.35 801.39 642.74 799.42 Z"
            fill="#f1f7d3"/>
    </g>
    <g id="group_2">
        <path
            id="path_5"
            d="M 699.84 1097.96 L 962.82 1097.96 L 962.82 1105.8 L 699.84 1105.8 L 699.84 1097.96 Z"
            fill="#d0d3b6"/>
    </g>
    <g id="group_3">
        <path
            id="path_6"
            d="M 453.66 1024.53 C 453.66 1024.53 493.65 801.38 437.26 799.42 C 310.39 795 189.06 838.08 33.7 1248.8 L 223.39 1261.65"
            fill="#f1f7d3"/>
    </g>
    <g id="group_4">
        <path
            id="path_7"
            d="M 259.65 970.39 L 267.49 970.39 L 267.49 1233.37 L 259.65 1233.37 L 259.65 970.39 Z"
            fill="#d0d3b6"/>
    </g>
    <path
        id="path_8"
        d="M 433.14 775.19 C 433.19 784.52 432 798.17 424.7 798.91 L 438.45 823.43 L 476.27 790.92 C 476.26 790.92 433.11 770.28 433.14 775.19 Z"
        fill="#f1f7d3"/>
    <path
        id="path_9"
        d="M 642.89 779.38 C 643.23 788.14 645 798.28 651.27 798.91 L 637.52 823.43 L 599.7 790.92 C 599.69 790.92 642.62 772.55 642.89 779.38 Z"
        fill="#f1f7d3"/>
    <path
        id="path_10"
        d="M 433.29 723.76 L 643.4 723.76 L 643.4 826.23 L 433.29 826.23 L 433.29 723.76 Z"
        fill="#f1f7d3"/>
    <g id="group_5">
        <path
            id="path_11"
            d="M 534.16 723.76 L 542 723.76 L 542 881 L 534.16 881 L 534.16 723.76 Z"
            fill="#d0d3b6"/>
    </g>
    <path
        id="path_12"
        d="M 447 676.03 C 480.28 696.91 519.64 709 561.82 709 L 567.96 709 C 589.16 709 609.64 705.94 629 700.25 L 629 665 L 447 665 L 447 676.03 Z"
        fill="#ae764d"/>
    <g id="group_6">
        <path
            id="path_13"
            d="M 544.96 700 L 538.82 700 C 419.35 700 322.49 603.15 322.49 483.67 L 322.49 260 L 761.28 260 L 761.28 483.67 C 761.29 603.15 664.43 700 544.96 700 Z"
            fill="#d0925d"/>
        <path
            id="path_14"
            d="M 458.2 392.26 C 467.302 392.26 474.68 404.908 474.68 420.51 C 474.68 436.112 467.302 448.76 458.2 448.76 C 449.098 448.76 441.72 436.112 441.72 420.51 C 441.72 404.908 449.098 392.26 458.2 392.26 Z"
            fill="#55221f"/>
        <path
            id="path_15"
            d="M 617.8 392.26 C 626.902 392.26 634.28 404.908 634.28 420.51 C 634.28 436.112 626.902 448.76 617.8 448.76 C 608.698 448.76 601.32 436.112 601.32 420.51 C 601.32 404.908 608.698 392.26 617.8 392.26 Z"
            fill="#55221f"/>
        <path
            id="path_16"
            d="M 419.3 367.16 C 417.47 367.16 415.67 366.28 414.58 364.64 C 412.83 362.03 413.53 358.51 416.13 356.76 C 438.79 341.56 462.3 340.23 486.02 352.79 C 488.79 354.26 489.85 357.7 488.38 360.47 C 486.91 363.24 483.47 364.3 480.7 362.83 C 460.41 352.09 441.9 353.15 422.45 366.2 C 421.49 366.85 420.39 367.16 419.3 367.16 Z"
            fill="#003144"/>
        <path
            id="path_17"
            d="M 583.88 361.88 C 582.07 361.59 580.44 360.43 579.62 358.64 C 578.31 355.79 579.57 352.42 582.42 351.11 C 607.22 339.74 630.65 342.19 652.05 358.39 C 654.55 360.28 655.04 363.85 653.15 366.35 C 651.25 368.85 647.69 369.34 645.19 367.45 C 626.88 353.59 608.44 351.68 587.15 361.44 C 586.09 361.93 584.95 362.06 583.88 361.88 Z"
            fill="#003144"/>
        <path
            id="path_18"
            d="M 552.53 614.54 C 551.88 614.54 551.22 614.44 550.56 614.22 C 528.68 607.03 505.34 596.17 481.19 581.93 C 478.19 580.16 477.19 576.3 478.96 573.3 C 480.73 570.3 484.59 569.3 487.59 571.07 C 510.96 584.84 533.47 595.33 554.49 602.24 C 557.8 603.33 559.6 606.89 558.51 610.19 C 557.65 612.86 555.18 614.54 552.53 614.54 Z"
            fill="#bf4036"/>
        <path
            id="path_19"
            d="M 546.34 539.83 C 543.92 539.83 541.78 538.07 541.39 535.6 C 540.95 532.86 542.82 530.29 545.56 529.85 C 553.83 528.53 574.73 521.38 572.22 504.36 C 570.53 492.88 560.5 484.72 554.67 480.87 C 550.36 478.03 547.32 473.43 546.31 468.26 L 539.65 433.98 C 539.12 431.26 540.9 428.62 543.62 428.09 C 546.34 427.57 548.98 429.34 549.51 432.06 L 556.17 466.34 C 556.66 468.88 558.13 471.12 560.2 472.48 C 567.43 477.25 579.89 487.54 582.16 502.89 C 585.47 525.31 563.03 537.23 547.15 539.76 C 546.87 539.81 546.6 539.83 546.34 539.83 Z"
            fill="#9e6452"/>
        <path
            id="path_20"
            d="M 664.57 185.37 L 664.57 185.37 L 415.29 185.37 L 415.29 185.37 C 415.29 135.46 374.83 95 324.92 95 L 324.92 95 C 318.89 95 314.01 99.88 314.01 105.91 L 314.01 487.28 C 314.01 567.84 356.41 638.48 420.11 678.14 C 424.12 680.64 429.31 677.71 429.31 672.99 L 429.31 635.29 C 429.31 601.69 411.43 570.94 382.82 553.33 C 351.2 533.86 330.11 498.93 330.11 459.06 L 330.11 439.69 C 330.11 376.74 382.01 325.4 444.92 327.75 C 465.4 328.51 484.46 334.85 500.63 345.28 C 524.59 360.75 555.26 360.75 579.22 345.28 C 595.38 334.85 614.44 328.51 634.93 327.75 C 697.84 325.41 749.74 376.74 749.74 439.69 L 749.74 459.06 C 749.74 498.92 728.66 533.86 697.03 553.33 C 668.42 570.94 650.54 601.7 650.54 635.29 L 650.54 675.38 C 650.54 680.05 655.63 682.98 659.64 680.59 C 725.57 641.43 769.76 569.52 769.76 487.28 L 769.76 105.91 C 769.76 99.88 764.88 95 758.85 95 L 754.92 95 C 705.03 95 664.57 135.46 664.57 185.37 Z"
            fill="#f1f7d3"/>
        <path
            id="path_21"
            d="M 540.45 161.48 C 646.864 161.48 733.13 188.218 733.13 221.2 C 733.13 254.182 646.864 280.92 540.45 280.92 C 434.036 280.92 347.77 254.182 347.77 221.2 C 347.77 188.218 434.036 161.48 540.45 161.48 Z"
            fill="#f1f7d3"/>
    </g>
    <path
        id="path_22"
        d="M 576.98 962.4 C 577.46 961.86 577.57 961.08 577.28 960.42 C 576.99 959.76 576.32 959.34 575.6 959.34 L 551.22 959.34 C 550.84 959.34 550.48 959.13 550.29 958.79 C 550.1 958.45 550.11 958.04 550.32 957.71 L 571.95 922.97 C 572.57 921.98 572.6 920.72 572.03 919.7 C 571.46 918.67 570.38 918.04 569.21 918.04 L 539.75 918.04 C 538.54 918.04 537.43 918.72 536.88 919.79 L 504.71 982.43 C 504.51 982.81 504.53 983.27 504.75 983.64 C 504.98 984.01 505.38 984.23 505.81 984.23 L 525.93 984.23 C 526.54 984.23 527.12 984.53 527.46 985.05 C 527.8 985.56 527.87 986.2 527.64 986.77 L 505.04 1042.45 C 504.94 1042.71 505.03 1043.01 505.27 1043.15 C 505.51 1043.3 505.81 1043.25 506 1043.04 L 576.98 962.4 Z"
        fill="#f7c331"/>
</svg>
