<svg
    xmlns="http://www.w3.org/2000/svg"
    viewBox="0 0 1080 1080"
    id="vector">
    <path
        id="path"
        d="M 0 0 L 1080 0 L 1080 1080 L 0 1080 L 0 0 Z"
        fill="#3ddb85"/>
    <g id="group">
        <path
            id="path_1"
            d="M 336.43 593.52 C 338.33 594.37 340.25 595.08 342.19 595.69 C 329.45 580.62 325.67 559.02 334.26 539.8 C 345.36 514.98 373.2 502.89 398.52 510.87 C 393.54 504.98 387.2 500.1 379.69 496.74 C 352.97 484.79 321.62 496.77 309.67 523.49 C 297.73 550.22 309.71 581.57 336.43 593.52 Z"
            fill="#261614"/>
    </g>
    <g id="group_1">
        <path
            id="path_2"
            d="M 340.62 1121.25 L 739.38 1121.25 C 738.14 1107.66 737.5 1093.91 737.5 1080 C 737.5 959.35 785.19 849.85 862.75 769.31 C 781.25 684.67 666.78 632 540 632 C 413.22 632 298.75 684.67 217.25 769.31 C 294.81 849.85 342.5 959.35 342.5 1080 C 342.5 1093.91 341.86 1107.67 340.62 1121.25 Z"
            fill="#f1f7d3"/>
    </g>
    <path
        id="path_3"
        d="M 701.74 847.82 C 692.18 846.54 682.42 845.91 672.48 846.01 L 435.81 848.32 C 433.5 847.33 431 846.76 428.29 846.66 C 310.44 842.56 196.98 876.16 61.09 1164.51 L 222.91 1164.51 L 375.14 1164.51 L 704.84 1164.51 L 870.51 1164.51 L 1018.89 1164.51 C 902.32 917.13 802.25 857.25 701.74 847.82 Z"
        fill="#013b59"/>
    <g id="group_2">
        <path
            id="path_4"
            d="M 678.9 840.59 C 644.08 831.78 647.89 669.23 647.89 669.23 L 441.92 656 C 441.92 656 443.6 829.1 414.79 840.59 C 401.97 845.7 346.87 854.57 347 855 C 366 916 462.86 988.03 544 988 C 624.68 987.97 737 917 742 869 C 742.07 868.3 753.35 856.78 728.17 851.47 C 709.13 847.45 689.42 843.25 678.9 840.59 Z"
            fill="#773d35"/>
    </g>
    <g id="group_3">
        <path
            id="path_5"
            d="M 861.34 1164.51 L 865.14 1032.73 L 856.61 1032.49 L 852.81 1164.51 Z"
            fill="#04142f"/>
    </g>
    <g id="group_4">
        <path
            id="path_6"
            d="M 243.39 1164.51 L 239.59 1032.49 L 231.06 1032.73 L 234.86 1164.51 Z"
            fill="#04142f"/>
    </g>
    <path
        id="path_7"
        d="M 338.5 223 C 380.75 223 415 257.25 415 299.5 C 415 341.75 380.75 376 338.5 376 C 296.25 376 262 341.75 262 299.5 C 262 257.25 296.25 223 338.5 223 Z"
        fill="#261614"/>
    <path
        id="path_8"
        d="M 414.5 161 C 456.75 161 491 195.25 491 237.5 C 491 279.75 456.75 314 414.5 314 C 372.25 314 338 279.75 338 237.5 C 338 195.25 372.25 161 414.5 161 Z"
        fill="#261614"/>
    <path
        id="path_9"
        d="M 508.5 130 C 550.75 130 585 164.25 585 206.5 C 585 248.75 550.75 283 508.5 283 C 466.25 283 432 248.75 432 206.5 C 432 164.25 466.25 130 508.5 130 Z"
        fill="#261614"/>
    <path
        id="path_10"
        d="M 661 209.5 C 661 251.75 620.25 314 578 314 C 535.75 314 508 251.75 508 209.5 C 508 167.25 542.25 133 584.5 133 C 626.75 133 661 167.25 661 209.5 Z"
        fill="#261614"/>
    <path
        id="path_11"
        d="M 649.5 170 C 691.75 170 726 204.25 726 246.5 C 726 288.75 691.75 323 649.5 323 C 607.25 323 573 288.75 573 246.5 C 573 204.25 607.25 170 649.5 170 Z"
        fill="#261614"/>
    <path
        id="path_12"
        d="M 706.5 247 C 748.75 247 783 281.25 783 323.5 C 783 365.75 748.75 400 706.5 400 C 664.25 400 630 365.75 630 323.5 C 630 281.25 664.25 247 706.5 247 Z"
        fill="#261614"/>
    <path
        id="path_13"
        d="M 735.5 335 C 777.75 335 812 369.25 812 411.5 C 812 453.75 777.75 488 735.5 488 C 693.25 488 659 453.75 659 411.5 C 659 369.25 693.25 335 735.5 335 Z"
        fill="#261614"/>
    <path
        id="path_14"
        d="M 687.5 418 C 729.75 418 764 452.25 764 494.5 C 764 536.75 729.75 571 687.5 571 C 645.25 571 611 536.75 611 494.5 C 611 452.25 645.25 418 687.5 418 Z"
        fill="#261614"/>
    <path
        id="path_15"
        d="M 390.5 441 C 432.75 441 467 475.25 467 517.5 C 467 559.75 432.75 594 390.5 594 C 348.25 594 314 559.75 314 517.5 C 314 475.25 348.25 441 390.5 441 Z"
        fill="#261614"/>
    <path
        id="path_16"
        d="M 322.5 397 C 364.75 397 399 431.25 399 473.5 C 399 515.75 364.75 550 322.5 550 C 280.25 550 246 515.75 246 473.5 C 246 431.25 280.25 397 322.5 397 Z"
        fill="#261614"/>
    <path
        id="path_17"
        d="M 311.5 323 C 353.75 323 388 357.25 388 399.5 C 388 441.75 353.75 476 311.5 476 C 269.25 476 235 441.75 235 399.5 C 235 357.25 269.25 323 311.5 323 Z"
        fill="#261614"/>
    <path
        id="path_18"
        d="M 590.61 759 L 595.39 759 C 614.44 759 632.75 755.84 649.84 750.01 C 647.04 710.69 647.89 674.22 647.89 674.22 L 441.92 661 C 441.92 661 441.95 664.29 441.93 669.97 C 470.36 722.96 526.27 759 590.61 759 Z"
        fill="#562a28"/>
    <path
        id="path_19"
        d="M 546.39 718 L 541.61 718 C 448.49 718 373 642.51 373 549.39 L 373 299 L 715 299 L 715 549.39 C 715 642.51 639.51 718 546.39 718 Z"
        fill="#773d35"/>
    <g id="group_5">
        <path
            id="path_20"
            d="M 541.33 594.4 C 551.9 594.4 566.03 589.66 567.23 575.66 C 568.12 565.36 561.64 556.8 557.7 552.61 C 556.68 551.52 556.13 550 556.19 548.44 L 557.12 525.61 C 557.2 523.53 555.59 521.77 553.5 521.69 C 551.43 521.59 549.66 523.22 549.58 525.31 L 548.65 548.14 C 548.5 551.72 549.8 555.23 552.21 557.79 C 555.29 561.06 560.35 567.64 559.72 575.02 C 559.35 579.25 556.94 582.46 552.53 584.54 C 548.17 586.6 542.9 587.06 539.41 586.8 C 537.34 586.65 535.52 588.21 535.37 590.28 C 535.22 592.36 536.78 594.17 538.85 594.32 C 539.65 594.37 540.48 594.4 541.33 594.4 Z"
            fill="#562a28"/>
    </g>
    <path
        id="path_21"
        d="M 382.9 607 L 446.35 607 C 470.57 607 491.65 590.42 497.36 566.88 L 497.36 566.88 C 503.6 541.13 526.65 523 553.14 523 L 553.14 523 C 579.5 523 602.46 540.95 608.83 566.52 L 609 567.19 C 614.82 590.58 635.83 606.99 659.93 606.99 L 702.09 606.99 C 715.29 606.99 725.99 596.29 725.99 583.09 L 725.99 480 L 359 480 L 359 583.1 C 359 596.3 369.7 607 382.9 607 Z"
        fill="#f86734"/>
    <path
        id="path_22"
        d="M 736 501 L 366 501 C 337.28 501 314 477.72 314 449 L 314 449 C 314 420.28 337.28 397 366 397 L 736 397 C 764.72 397 788 420.28 788 449 L 788 449 C 788 477.72 764.72 501 736 501 Z"
        fill="#2c80f9"/>
    <path
        id="path_23"
        d="M 470.2 425.26 C 479.302 425.26 486.68 437.908 486.68 453.51 C 486.68 469.112 479.302 481.76 470.2 481.76 C 461.098 481.76 453.72 469.112 453.72 453.51 C 453.72 437.908 461.098 425.26 470.2 425.26 Z"
        fill="#55221f"/>
    <path
        id="path_24"
        d="M 629.8 425.26 C 638.902 425.26 646.28 437.908 646.28 453.51 C 646.28 469.112 638.902 481.76 629.8 481.76 C 620.698 481.76 613.32 469.112 613.32 453.51 C 613.32 437.908 620.698 425.26 629.8 425.26 Z"
        fill="#55221f"/>
    <path
        id="path_25"
        d="M 390.5 237 C 432.75 237 467 271.25 467 313.5 C 467 355.75 432.75 390 390.5 390 C 348.25 390 314 355.75 314 313.5 C 314 271.25 348.25 237 390.5 237 Z"
        fill="#261614"/>
    <path
        id="path_26"
        d="M 501.5 198 C 543.75 198 578 232.25 578 274.5 C 578 316.75 543.75 351 501.5 351 C 459.25 351 425 316.75 425 274.5 C 425 232.25 459.25 198 501.5 198 Z"
        fill="#261614"/>
    <path
        id="path_27"
        d="M 660.5 217 C 702.75 217 737 251.25 737 293.5 C 737 335.75 702.75 370 660.5 370 C 618.25 370 584 335.75 584 293.5 C 584 251.25 618.25 217 660.5 217 Z"
        fill="#261614"/>
    <g id="group_6">
        <path
            id="path_28"
            d="M 520.5 259 C 517.5 259 514.54 259.19 511.63 259.53 C 537.29 271.88 555 298.12 555 328.5 C 555 367.75 525.44 400.07 487.37 404.47 C 497.39 409.29 508.63 412 520.5 412 C 562.75 412 597 377.75 597 335.5 C 597 293.25 562.75 259 520.5 259 Z"
            fill="#261614"/>
    </g>
    <path
        id="path_29"
        d="M 769.1 863.18 C 750.6 856.09 732.21 851.71 713.83 849.21 C 683.78 909.54 621.48 951 549.5 951 C 476.76 951 413.91 908.68 384.23 847.32 C 365.33 848.73 346.47 851.82 327.51 857.51 C 363.09 945.17 449.07 1007 549.5 1007 C 647.75 1007 732.17 947.83 769.1 863.18 Z"
        fill="#e77044"/>
    <path
        id="path_30"
        d="M 589.25 624.11 L 512.51 628.73 C 512.51 628.73 529.13 656.21 550.89 655.62 C 572.66 655.04 589.25 624.11 589.25 624.11 Z"
        fill="#ffffff"/>
    <path
        id="path_31"
        d="M 535 950.43 L 535 1006.57 C 539.8 1006.86 544.63 1007.01 549.5 1007.01 C 555.39 1007.01 561.22 1006.79 567 1006.37 L 567 950.18 C 561.24 950.73 555.4 951.01 549.5 951.01 C 544.62 951 539.78 950.8 535 950.43 Z"
        fill="#c15a3a"/>
</svg>
