<svg
    xmlns="http://www.w3.org/2000/svg"
    viewBox="0 0 1080 1080"
    id="vector">
    <path
        id="path"
        d="M 0 0 L 1080 0 L 1080 1080 L 0 1080 L 0 0 Z"
        fill="#3ddb85"/>
    <g id="group">
        <path
            id="path_1"
            d="M 635.75 810.28 C 609 772 613.45 637.01 613.45 637.01 L 465.29 627.5 C 465.29 627.5 484.54 776.57 445.77 810.28 C 407 844 291 866 241 904 C 191 942 64.63 1131.02 123 1131 C 181.04 1130.98 966.4 1143.53 970 1109 C 970.05 1108.5 922 950 856 898 C 790 846 662.51 848.57 635.75 810.28 Z"
            fill="#c66e4f"/>
    </g>
    <g id="group_1">
        <path
            id="path_2"
            d="M 856 898 C 818.18 868.2 760.18 856.32 712.5 844.41 L 712.5 894 C 712.5 919.41 691.91 940 666.5 940 L 413.5 940 C 388.09 940 367.5 919.41 367.5 894 L 367.5 848.31 C 321.83 865.1 270.18 881.82 241 904 C 191 942 64.63 1131.02 123 1131 C 181.04 1130.98 966.4 1143.53 970 1109 C 970.05 1108.5 922 950 856 898 Z"
            fill="#f0f7cf"/>
    </g>
    <path
        id="path_3"
        d="M 573.39 712 C 587.55 712 601.3 710.25 614.44 706.96 C 612.38 669.41 613.45 637.02 613.45 637.02 L 465.29 627.51 C 465.29 627.51 468.21 650.16 469.49 679.79 C 497.3 700.04 531.56 712 568.61 712 L 573.39 712 Z"
        fill="#773d35"/>
    <g id="group_2">
        <path
            id="path_4"
            d="M 404.94 505.21 C 402.67 503.24 400.31 501.45 397.89 499.8 C 409.18 525.94 405.36 557.37 385.45 580.32 C 359.73 609.97 316.22 615.01 284.58 593.39 C 288.99 603.6 295.71 613.01 304.67 620.79 C 336.58 648.48 384.9 645.05 412.59 613.13 C 440.28 581.21 436.85 532.9 404.94 505.21 Z"
            fill="#2f1917"/>
    </g>
    <g id="group_3">
        <path
            id="path_5"
            d="M 773.77 643.81 C 775.83 641.62 777.71 639.34 779.46 636.99 C 752.89 647.22 721.64 642.15 699.5 621.34 C 670.91 594.45 667.61 550.77 690.48 520.03 C 680.1 524.03 670.43 530.36 662.3 539.01 C 633.36 569.79 634.85 618.2 665.63 647.15 C 696.42 676.08 744.83 674.59 773.77 643.81 Z"
            fill="#2f1917"/>
    </g>
    <path
        id="path_6"
        d="M 642.13 148.12 C 764.737 148.12 864.13 258.706 864.13 395.12 C 864.13 531.534 764.737 642.12 642.13 642.12 C 519.523 642.12 420.13 531.534 420.13 395.12 C 420.13 258.706 519.523 148.12 642.13 148.12 Z"
        fill="#331816"/>
    <path
        id="path_7"
        d="M 471 164 C 607.414 164 718 263.393 718 386 C 718 508.607 607.414 608 471 608 C 334.586 608 224 508.607 224 386 C 224 263.393 334.586 164 471 164 Z"
        fill="#331816"/>
    <path
        id="path_8"
        d="M 542.39 695 L 537.61 695 C 444.49 695 369 619.51 369 526.39 L 369 271 L 711 271 L 711 526.39 C 711 619.51 635.51 695 542.39 695 Z"
        fill="#c66e4f"/>
    <g id="group_4">
        <path
            id="path_9"
            d="M 575.44 617.37 C 561.38 621.04 538.25 623.79 517.51 611.1 C 514.31 609.14 513.3 604.95 515.25 601.75 C 517.22 598.56 521.41 597.53 524.6 599.5 C 550.2 615.16 582.43 600.7 582.77 600.56 C 586.2 599.01 590.22 600.49 591.79 603.89 C 593.37 607.3 591.88 611.33 588.48 612.91 C 587.93 613.16 582.99 615.39 575.44 617.37 Z"
            fill="#910916"
            fill-opacity="0.7"
            stroke-opacity="0.7"
            stroke-width="1"/>
    </g>
    <path
        id="path_10"
        d="M 736.01 141.78 C 782.181 141.78 819.61 222.557 819.61 322.2 C 819.61 421.843 782.181 502.62 736.01 502.62 C 689.839 502.62 652.41 421.843 652.41 322.2 C 652.41 222.557 689.839 141.78 736.01 141.78 Z"
        fill="#331816"/>
    <path
        id="path_11"
        d="M 726.1 549.09 C 600.91 595.05 480.61 593.37 364.66 549.23 C 355.22 545.64 349 536.56 349 526.46 L 349 408.45 C 349 392.46 364.15 380.78 379.61 384.9 C 490.2 414.36 600.8 414.36 711.39 384.9 C 726.85 380.78 742 392.45 742 408.45 L 742 526.22 C 742 536.42 735.66 545.57 726.1 549.09 Z"
        fill="#f1f7d3"/>
    <g id="group_5">
        <path
            id="path_12"
            d="M 465 478.26 C 474.102 478.26 481.48 490.908 481.48 506.51 C 481.48 522.112 474.102 534.76 465 534.76 C 455.898 534.76 448.52 522.112 448.52 506.51 C 448.52 490.908 455.898 478.26 465 478.26 Z"
            fill="#4f2521"/>
        <path
            id="path_13"
            d="M 615 478.26 C 624.102 478.26 631.48 490.908 631.48 506.51 C 631.48 522.112 624.102 534.76 615 534.76 C 605.898 534.76 598.52 522.112 598.52 506.51 C 598.52 490.908 605.898 478.26 615 478.26 Z"
            fill="#4f2521"/>
    </g>
    <g id="group_6">
        <path
            id="path_14"
            d="M 490.37 434.36 C 492.34 434.42 494.29 433.49 495.45 431.72 C 497.22 429.02 496.47 425.39 493.76 423.61 C 468.74 407.21 442.52 406.26 415.8 420.77 C 412.96 422.31 411.91 425.87 413.45 428.71 C 414.99 431.55 418.55 432.6 421.39 431.06 C 444.34 418.59 465.91 419.36 487.34 433.4 C 488.28 434.02 489.32 434.33 490.37 434.36 Z"
            fill="#55221f"/>
    </g>
    <g id="group_7">
        <path
            id="path_15"
            d="M 678.47 434.69 C 680.43 434.88 682.44 434.08 683.71 432.39 C 685.66 429.81 685.14 426.14 682.56 424.19 C 658.68 406.18 632.58 403.49 604.96 416.21 C 602.02 417.56 600.74 421.04 602.09 423.98 C 603.44 426.92 606.92 428.2 609.86 426.85 C 633.58 415.93 655.06 418.12 675.51 433.55 C 676.4 434.21 677.43 434.59 678.47 434.69 Z"
            fill="#55221f"/>
    </g>
    <path
        id="path_16"
        d="M 457.62 214.63 C 557.263 214.63 638.04 258.139 638.04 311.81 C 638.04 365.481 557.263 408.99 457.62 408.99 C 357.977 408.99 277.2 365.481 277.2 311.81 C 277.2 258.139 357.977 214.63 457.62 214.63 Z"
        fill="#331816"/>
    <g id="group_8">
        <path
            id="path_17"
            d="M 350.19 978.24 L 237.28 872.81 L 320.33 826.67 Z"
            fill="#163a57"/>
        <path
            id="path_18"
            d="M 539 751.99 L 392 799.49 L 392 704.49 Z"
            fill="#163a57"/>
        <path
            id="path_19"
            d="M 547.68 805.62 L 681.22 727.95 L 701.42 820.77 Z"
            fill="#163a57"/>
        <path
            id="path_20"
            d="M 301.17 1011.19 L 146.78 1016.47 L 172.88 925.13 Z"
            fill="#163a57"/>
        <path
            id="path_21"
            d="M 742 978.24 L 854.66 872.81 L 771.8 826.67 Z"
            fill="#163a57"/>
        <path
            id="path_22"
            d="M 790.91 1011.19 L 944.97 1016.47 L 918.93 925.13 Z"
            fill="#163a57"/>
    </g>
    <g id="group_9">
        <path
            id="path_23"
            d="M 422 499.99 L 275 547.49 L 275 452.49 Z"
            fill="#3a4750"/>
        <path
            id="path_24"
            d="M 421.75 531.49 L 331.36 656.78 L 275.14 580.2 Z"
            fill="#3a4750"/>
        <path
            id="path_25"
            d="M 685 499.99 L 832 547.49 L 832 452.49 Z"
            fill="#3a4750"/>
        <path
            id="path_26"
            d="M 685.25 531.49 L 775.64 656.78 L 831.86 580.2 Z"
            fill="#3a4750"/>
    </g>
    <g id="group_10">
        <path
            id="path_27"
            d="M 659.47 939.56 C 634.61 966.5 589.99 984.46 539.07 984.46 C 488.15 984.46 443.53 966.5 418.67 939.56 L 409 939.56 C 430.52 973.27 480.65 996.9 539.07 996.9 C 597.49 996.9 647.62 973.27 669.14 939.56 L 659.47 939.56 Z"
            fill="#163a57"/>
        <path
            id="path_28"
            d="M 478.03 1022.23 L 475.62 987.91 C 475.42 985.1 478.03 982.91 480.77 983.58 L 501.31 988.66 C 504.05 989.34 505.33 992.49 503.85 994.89 L 485.72 1024.13 C 483.58 1027.56 478.31 1026.25 478.03 1022.23 Z"
            fill="#163a57"/>
        <path
            id="path_29"
            d="M 535.37 1027.12 L 524.79 994.38 C 523.92 991.7 525.92 988.94 528.75 988.94 L 549.91 988.94 C 552.73 988.94 554.73 991.69 553.87 994.38 L 543.29 1027.12 C 542.04 1030.96 536.61 1030.96 535.37 1027.12 Z"
            fill="#163a57"/>
        <path
            id="path_30"
            d="M 591.24 1024.06 L 574.89 993.79 C 573.55 991.31 575.02 988.24 577.79 987.73 L 598.59 983.88 C 601.36 983.37 603.83 985.71 603.47 988.51 L 599.02 1022.62 C 598.5 1026.62 593.16 1027.61 591.24 1024.06 Z"
            fill="#163a57"/>
        <path
            id="path_31"
            d="M 644.69 1002.45 L 619.41 979.12 C 617.34 977.21 617.73 973.83 620.19 972.44 L 638.62 962.06 C 641.08 960.68 644.17 962.09 644.73 964.85 L 651.58 998.56 C 652.38 1002.52 647.65 1005.19 644.69 1002.45 Z"
            fill="#163a57"/>
        <path
            id="path_32"
            d="M 431.59 1000.37 L 435.12 966.15 C 435.41 963.34 438.35 961.63 440.93 962.77 L 460.29 971.31 C 462.87 972.45 463.59 975.77 461.72 977.88 L 438.83 1003.56 C 436.14 1006.57 431.17 1004.38 431.59 1000.37 Z"
            fill="#163a57"/>
    </g>
    <path
        id="path_33"
        d="M 545.5 220.44 C 545.5 220.44 492 348 349 386 C 349 386 540 370.87 545.5 220.44 Z"
        fill="#5b2928"/>
    <path
        id="path_34"
        d="M 643.22 231.25 C 643.22 231.25 773 249 817 372 C 817 372 790.44 203.5 643.22 231.25 Z"
        fill="#5b2928"/>
</svg>
