<svg
    xmlns="http://www.w3.org/2000/svg"
    viewBox="0 0 1080 1080"
    id="vector">
    <path
        id="path"
        d="M 0 0 L 1080 0 L 1080 1080 L 0 1080 L 0 0 Z"
        fill="#3ddb85"/>
    <g id="group">
        <path
            id="path_1"
            d="M 748.5 489 L 672.5 489 C 657.38 489 645 476.62 645 461.5 L 645 461.5 C 645 446.38 657.38 434 672.5 434 L 748.5 434 C 763.62 434 776 446.38 776 461.5 L 776 461.5 C 776 476.62 763.62 489 748.5 489 Z"
            fill="#003144"/>
        <path
            id="path_2"
            d="M 748.5 534 L 672.5 534 C 657.38 534 645 521.62 645 506.5 L 645 506.5 C 645 491.38 657.38 479 672.5 479 L 748.5 479 C 763.62 479 776 491.38 776 506.5 L 776 506.5 C 776 521.62 763.62 534 748.5 534 Z"
            fill="#003144"/>
        <path
            id="path_3"
            d="M 748.5 579 L 672.5 579 C 657.38 579 645 566.62 645 551.5 L 645 551.5 C 645 536.38 657.38 524 672.5 524 L 748.5 524 C 763.62 524 776 536.38 776 551.5 L 776 551.5 C 776 566.62 763.62 579 748.5 579 Z"
            fill="#003144"/>
        <path
            id="path_4"
            d="M 748.5 624 L 672.5 624 C 657.38 624 645 611.62 645 596.5 L 645 596.5 C 645 581.38 657.38 569 672.5 569 L 748.5 569 C 763.62 569 776 581.38 776 596.5 L 776 596.5 C 776 611.62 763.62 624 748.5 624 Z"
            fill="#003144"/>
        <path
            id="path_5"
            d="M 748.5 669 L 672.5 669 C 657.38 669 645 656.62 645 641.5 L 645 641.5 C 645 626.38 657.38 614 672.5 614 L 748.5 614 C 763.62 614 776 626.38 776 641.5 L 776 641.5 C 776 656.62 763.62 669 748.5 669 Z"
            fill="#003144"/>
        <path
            id="path_6"
            d="M 748.5 714 L 672.5 714 C 657.38 714 645 701.62 645 686.5 L 645 686.5 C 645 671.38 657.38 659 672.5 659 L 748.5 659 C 763.62 659 776 671.38 776 686.5 L 776 686.5 C 776 701.62 763.62 714 748.5 714 Z"
            fill="#003144"/>
        <path
            id="path_7"
            d="M 748.5 759 L 672.5 759 C 657.38 759 645 746.62 645 731.5 L 645 731.5 C 645 716.38 657.38 704 672.5 704 L 748.5 704 C 763.62 704 776 716.38 776 731.5 L 776 731.5 C 776 746.62 763.62 759 748.5 759 Z"
            fill="#003144"/>
        <path
            id="path_8"
            d="M 748.5 804 L 672.5 804 C 657.38 804 645 791.62 645 776.5 L 645 776.5 C 645 761.38 657.38 749 672.5 749 L 748.5 749 C 763.62 749 776 761.38 776 776.5 L 776 776.5 C 776 791.62 763.62 804 748.5 804 Z"
            fill="#003144"/>
    </g>
    <g id="group_1">
        <path
            id="path_9"
            d="M 396.5 489 L 320.5 489 C 305.38 489 293 476.62 293 461.5 L 293 461.5 C 293 446.38 305.38 434 320.5 434 L 396.5 434 C 411.62 434 424 446.38 424 461.5 L 424 461.5 C 424 476.62 411.62 489 396.5 489 Z"
            fill="#003144"/>
        <path
            id="path_10"
            d="M 396.5 534 L 320.5 534 C 305.38 534 293 521.62 293 506.5 L 293 506.5 C 293 491.38 305.38 479 320.5 479 L 396.5 479 C 411.62 479 424 491.38 424 506.5 L 424 506.5 C 424 521.62 411.62 534 396.5 534 Z"
            fill="#003144"/>
        <path
            id="path_11"
            d="M 396.5 579 L 320.5 579 C 305.38 579 293 566.62 293 551.5 L 293 551.5 C 293 536.38 305.38 524 320.5 524 L 396.5 524 C 411.62 524 424 536.38 424 551.5 L 424 551.5 C 424 566.62 411.62 579 396.5 579 Z"
            fill="#003144"/>
        <path
            id="path_12"
            d="M 396.5 624 L 320.5 624 C 305.38 624 293 611.62 293 596.5 L 293 596.5 C 293 581.38 305.38 569 320.5 569 L 396.5 569 C 411.62 569 424 581.38 424 596.5 L 424 596.5 C 424 611.62 411.62 624 396.5 624 Z"
            fill="#003144"/>
        <path
            id="path_13"
            d="M 396.5 669 L 320.5 669 C 305.38 669 293 656.62 293 641.5 L 293 641.5 C 293 626.38 305.38 614 320.5 614 L 396.5 614 C 411.62 614 424 626.38 424 641.5 L 424 641.5 C 424 656.62 411.62 669 396.5 669 Z"
            fill="#003144"/>
        <path
            id="path_14"
            d="M 396.5 714 L 320.5 714 C 305.38 714 293 701.62 293 686.5 L 293 686.5 C 293 671.38 305.38 659 320.5 659 L 396.5 659 C 411.62 659 424 671.38 424 686.5 L 424 686.5 C 424 701.62 411.62 714 396.5 714 Z"
            fill="#003144"/>
        <path
            id="path_15"
            d="M 396.5 759 L 320.5 759 C 305.38 759 293 746.62 293 731.5 L 293 731.5 C 293 716.38 305.38 704 320.5 704 L 396.5 704 C 411.62 704 424 716.38 424 731.5 L 424 731.5 C 424 746.62 411.62 759 396.5 759 Z"
            fill="#003144"/>
        <path
            id="path_16"
            d="M 396.5 804 L 320.5 804 C 305.38 804 293 791.62 293 776.5 L 293 776.5 C 293 761.38 305.38 749 320.5 749 L 396.5 749 C 411.62 749 424 761.38 424 776.5 L 424 776.5 C 424 791.62 411.62 804 396.5 804 Z"
            fill="#003144"/>
    </g>
    <path
        id="path_17"
        d="M 528.5 159 C 665.19 159 776 242.499 776 345.5 C 776 448.501 665.19 532 528.5 532 C 391.81 532 281 448.501 281 345.5 C 281 242.499 391.81 159 528.5 159 Z"
        fill="#103042"/>
    <g id="group_2">
        <path
            id="path_18"
            d="M 695.5 539 L 619.5 539 C 604.38 539 592 526.62 592 511.5 L 592 511.5 C 592 496.38 604.38 484 619.5 484 L 695.5 484 C 710.62 484 723 496.38 723 511.5 L 723 511.5 C 723 526.62 710.62 539 695.5 539 Z"
            fill="#002b38"/>
        <path
            id="path_19"
            d="M 695.5 584 L 619.5 584 C 604.38 584 592 571.62 592 556.5 L 592 556.5 C 592 541.38 604.38 529 619.5 529 L 695.5 529 C 710.62 529 723 541.38 723 556.5 L 723 556.5 C 723 571.62 710.62 584 695.5 584 Z"
            fill="#002b38"/>
        <path
            id="path_20"
            d="M 695.5 629 L 619.5 629 C 604.38 629 592 616.62 592 601.5 L 592 601.5 C 592 586.38 604.38 574 619.5 574 L 695.5 574 C 710.62 574 723 586.38 723 601.5 L 723 601.5 C 723 616.62 710.62 629 695.5 629 Z"
            fill="#002b38"/>
        <path
            id="path_21"
            d="M 695.5 674 L 619.5 674 C 604.38 674 592 661.62 592 646.5 L 592 646.5 C 592 631.38 604.38 619 619.5 619 L 695.5 619 C 710.62 619 723 631.38 723 646.5 L 723 646.5 C 723 661.62 710.62 674 695.5 674 Z"
            fill="#002b38"/>
        <path
            id="path_22"
            d="M 695.5 719 L 619.5 719 C 604.38 719 592 706.62 592 691.5 L 592 691.5 C 592 676.38 604.38 664 619.5 664 L 695.5 664 C 710.62 664 723 676.38 723 691.5 L 723 691.5 C 723 706.62 710.62 719 695.5 719 Z"
            fill="#002b38"/>
        <path
            id="path_23"
            d="M 695.5 764 L 619.5 764 C 604.38 764 592 751.62 592 736.5 L 592 736.5 C 592 721.38 604.38 709 619.5 709 L 695.5 709 C 710.62 709 723 721.38 723 736.5 L 723 736.5 C 723 751.62 710.62 764 695.5 764 Z"
            fill="#002b38"/>
        <path
            id="path_24"
            d="M 695.5 809 L 619.5 809 C 604.38 809 592 796.62 592 781.5 L 592 781.5 C 592 766.38 604.38 754 619.5 754 L 695.5 754 C 710.62 754 723 766.38 723 781.5 L 723 781.5 C 723 796.62 710.62 809 695.5 809 Z"
            fill="#002b38"/>
        <path
            id="path_25"
            d="M 695.5 854 L 619.5 854 C 604.38 854 592 841.62 592 826.5 L 592 826.5 C 592 811.38 604.38 799 619.5 799 L 695.5 799 C 710.62 799 723 811.38 723 826.5 L 723 826.5 C 723 841.62 710.62 854 695.5 854 Z"
            fill="#002b38"/>
    </g>
    <g id="group_3">
        <path
            id="path_26"
            d="M 456.5 534 L 380.5 534 C 365.38 534 353 521.62 353 506.5 L 353 506.5 C 353 491.38 365.38 479 380.5 479 L 456.5 479 C 471.62 479 484 491.38 484 506.5 L 484 506.5 C 484 521.62 471.62 534 456.5 534 Z"
            fill="#002b38"/>
        <path
            id="path_27"
            d="M 456.5 579 L 380.5 579 C 365.38 579 353 566.62 353 551.5 L 353 551.5 C 353 536.38 365.38 524 380.5 524 L 456.5 524 C 471.62 524 484 536.38 484 551.5 L 484 551.5 C 484 566.62 471.62 579 456.5 579 Z"
            fill="#002b38"/>
        <path
            id="path_28"
            d="M 456.5 624 L 380.5 624 C 365.38 624 353 611.62 353 596.5 L 353 596.5 C 353 581.38 365.38 569 380.5 569 L 456.5 569 C 471.62 569 484 581.38 484 596.5 L 484 596.5 C 484 611.62 471.62 624 456.5 624 Z"
            fill="#002b38"/>
        <path
            id="path_29"
            d="M 456.5 669 L 380.5 669 C 365.38 669 353 656.62 353 641.5 L 353 641.5 C 353 626.38 365.38 614 380.5 614 L 456.5 614 C 471.62 614 484 626.38 484 641.5 L 484 641.5 C 484 656.62 471.62 669 456.5 669 Z"
            fill="#002b38"/>
        <path
            id="path_30"
            d="M 456.5 714 L 380.5 714 C 365.38 714 353 701.62 353 686.5 L 353 686.5 C 353 671.38 365.38 659 380.5 659 L 456.5 659 C 471.62 659 484 671.38 484 686.5 L 484 686.5 C 484 701.62 471.62 714 456.5 714 Z"
            fill="#002b38"/>
        <path
            id="path_31"
            d="M 456.5 759 L 380.5 759 C 365.38 759 353 746.62 353 731.5 L 353 731.5 C 353 716.38 365.38 704 380.5 704 L 456.5 704 C 471.62 704 484 716.38 484 731.5 L 484 731.5 C 484 746.62 471.62 759 456.5 759 Z"
            fill="#002b38"/>
        <path
            id="path_32"
            d="M 456.5 804 L 380.5 804 C 365.38 804 353 791.62 353 776.5 L 353 776.5 C 353 761.38 365.38 749 380.5 749 L 456.5 749 C 471.62 749 484 761.38 484 776.5 L 484 776.5 C 484 791.62 471.62 804 456.5 804 Z"
            fill="#002b38"/>
        <path
            id="path_33"
            d="M 456.5 849 L 380.5 849 C 365.38 849 353 836.62 353 821.5 L 353 821.5 C 353 806.38 365.38 794 380.5 794 L 456.5 794 C 471.62 794 484 806.38 484 821.5 L 484 821.5 C 484 836.62 471.62 849 456.5 849 Z"
            fill="#002b38"/>
    </g>
    <g id="group_4">
        <path
            id="path_34"
            d="M 636.8 797.28 C 610.05 759 614.49 624.01 614.49 624.01 L 466.33 614.5 C 466.33 614.5 485.58 763.57 446.81 797.28 C 408.04 831 292.04 853 242.04 891 C 192.04 929 65.67 1118.02 124.04 1118 C 182.08 1117.98 967.44 1130.53 971.04 1096 C 971.09 1095.5 923.04 937 857.04 885 C 791.04 833 663.55 835.57 636.8 797.28 Z"
            fill="#f3b26b"/>
    </g>
    <path
        id="path_35"
        d="M 643.96 927 C 605.93 927 571.32 937.4 545.46 954.41 C 538.22 959.17 528.78 959.17 521.54 954.41 C 495.67 937.4 461.07 927 423.04 927 C 342.94 927 278 973.11 278 1030 L 278 1136.91 C 278 1149.11 287.89 1159 300.09 1159 L 766.9 1159 C 779.1 1159 788.99 1149.11 788.99 1136.91 L 788.99 1030 C 789 973.11 724.06 927 643.96 927 Z"
        fill="#4282f2"/>
    <g id="group_5">
        <path
            id="path_36"
            d="M 852 950 C 869.67 950 885.47 942.02 896.02 929.48 C 884.01 911.58 870.92 895.94 857.04 885 C 842.53 873.57 825.04 864.77 806.31 857.6 C 798.91 867.28 794.5 879.37 794.5 892.5 C 794.5 924.26 820.24 950 852 950 Z"
            fill="none"/>
        <path
            id="path_37"
            d="M 909.67 951.47 C 894.79 966.02 874.45 975 852 975 C 806.44 975 769.5 938.06 769.5 892.5 C 769.5 876.63 773.99 861.8 781.76 849.22 C 720.95 830.59 655.15 823.55 636.79 797.28 C 610.04 759 614.48 624.01 614.48 624.01 L 466.32 614.5 C 466.32 614.5 485.57 763.57 446.8 797.28 C 420.09 820.51 356.73 838.18 303.54 859.35 C 308 869.5 310.49 880.7 310.49 892.5 C 310.49 938.06 273.55 975 227.99 975 C 210.49 975 194.28 969.54 180.93 960.25 C 131.21 1028.47 83.86 1118.02 124.03 1118 C 182.07 1117.98 967.43 1130.53 971.03 1096 C 971.08 1095.65 947.07 1016.31 909.67 951.47 Z"
            fill="none"/>
        <path
            id="path_38"
            d="M 285.5 892.5 C 285.5 884.17 283.71 876.26 280.53 869.12 C 265.71 875.89 252.45 883.1 242.04 891 C 229.94 900.2 213.37 918.23 196.03 940.3 C 205.17 946.43 216.17 950 228 950 C 259.76 950 285.5 924.26 285.5 892.5 Z"
            fill="none"/>
        <path
            id="path_39"
            d="M 852 975 C 874.45 975 894.79 966.02 909.67 951.47 C 905.3 943.89 900.74 936.51 896.02 929.48 C 885.47 942.02 869.67 950 852 950 C 820.24 950 794.5 924.26 794.5 892.5 C 794.5 879.37 798.91 867.28 806.31 857.6 C 798.31 854.54 790.08 851.77 781.76 849.22 C 773.99 861.8 769.5 876.62 769.5 892.5 C 769.5 938.06 806.44 975 852 975 Z"
            fill="#4282f2"/>
        <path
            id="path_40"
            d="M 310.5 892.5 C 310.5 880.71 308.01 869.5 303.55 859.35 C 295.6 862.52 287.87 865.76 280.53 869.12 C 283.72 876.27 285.5 884.17 285.5 892.5 C 285.5 924.26 259.76 950 228 950 C 216.17 950 205.17 946.42 196.03 940.3 C 191.03 946.65 185.98 953.34 180.94 960.25 C 194.29 969.54 210.5 975 228 975 C 273.56 975 310.5 938.06 310.5 892.5 Z"
            fill="#4282f2"/>
    </g>
    <path
        id="path_41"
        d="M 555.39 704 C 576.54 704 596.77 700.09 615.43 692.98 C 613.44 655.84 614.49 624.01 614.49 624.01 L 466.33 614.5 C 466.33 614.5 470.45 646.43 471.04 684.07 C 494.74 696.78 521.84 704 550.62 704 L 555.39 704 Z"
        fill="#d0905c"/>
    <path
        id="path_42"
        d="M 542.39 685 L 537.61 685 C 444.49 685 369 609.51 369 516.39 L 369 261 L 711 261 L 711 516.39 C 711 609.51 635.51 685 542.39 685 Z"
        fill="#f3b26b"/>
    <g id="group_6">
        <path
            id="path_43"
            d="M 559.44 612.37 C 545.38 616.04 522.25 618.79 501.51 606.1 C 498.31 604.14 497.3 599.95 499.25 596.75 C 501.22 593.56 505.41 592.53 508.6 594.5 C 534.2 610.16 566.43 595.7 566.77 595.56 C 570.2 594.01 574.22 595.49 575.79 598.89 C 577.37 602.3 575.88 606.33 572.48 607.91 C 571.93 608.16 566.99 610.39 559.44 612.37 Z"
            fill="#910916"
            fill-opacity="0.7"
            stroke-opacity="0.7"
            stroke-width="1"/>
    </g>
    <path
        id="path_44"
        d="M 700.09 424 L 359.91 424 C 356.65 424 354 426.65 354 429.91 L 354 507.09 C 354 510.35 356.65 513 359.91 513 L 360.25 513 C 362.71 513 364.9 514.54 365.78 516.84 C 378.38 549.69 410.21 573 447.5 573 C 481.09 573 510.26 554.07 524.92 526.29 C 527.16 522.04 533.18 522.04 535.42 526.29 C 550.08 554.07 579.25 573 612.84 573 C 650.12 573 681.95 549.68 694.56 516.84 C 695.44 514.54 697.63 513 700.09 513 L 700.09 513 C 703.35 513 706 510.35 706 507.09 L 706 429.91 C 706 426.65 703.35 424 700.09 424 Z"
        fill="#5280ea"/>
    <g id="group_7">
        <path
            id="path_45"
            d="M 462 468.26 C 471.102 468.26 478.48 480.908 478.48 496.51 C 478.48 512.112 471.102 524.76 462 524.76 C 452.898 524.76 445.52 512.112 445.52 496.51 C 445.52 480.908 452.898 468.26 462 468.26 Z"
            fill="#4f2521"/>
        <path
            id="path_46"
            d="M 612 468.26 C 621.102 468.26 628.48 480.908 628.48 496.51 C 628.48 512.112 621.102 524.76 612 524.76 C 602.898 524.76 595.52 512.112 595.52 496.51 C 595.52 480.908 602.898 468.26 612 468.26 Z"
            fill="#4f2521"/>
    </g>
    <g id="group_8">
        <path
            id="path_47"
            d="M 365.9 401 L 300.1 401 C 285.75 401 274 389.26 274 374.9 L 274 372.1 C 274 357.75 285.74 346 300.1 346 L 365.9 346 C 380.25 346 392 357.74 392 372.1 L 392 374.9 C 392 389.26 380.26 401 365.9 401 Z"
            fill="#003144"/>
        <path
            id="path_48"
            d="M 365.9 446 L 300.1 446 C 285.75 446 274 434.26 274 419.9 L 274 417.1 C 274 402.75 285.74 391 300.1 391 L 365.9 391 C 380.25 391 392 402.74 392 417.1 L 392 419.9 C 392 434.26 380.26 446 365.9 446 Z"
            fill="#003144"/>
        <path
            id="path_49"
            d="M 365.9 491 L 300.1 491 C 285.75 491 274 479.26 274 464.9 L 274 462.1 C 274 447.75 285.74 436 300.1 436 L 365.9 436 C 380.25 436 392 447.74 392 462.1 L 392 464.9 C 392 479.26 380.26 491 365.9 491 Z"
            fill="#003144"/>
        <path
            id="path_50"
            d="M 365.9 536 L 300.1 536 C 285.75 536 274 524.26 274 509.9 L 274 507.1 C 274 492.75 285.74 481 300.1 481 L 365.9 481 C 380.25 481 392 492.74 392 507.1 L 392 509.9 C 392 524.26 380.26 536 365.9 536 Z"
            fill="#003144"/>
        <path
            id="path_51"
            d="M 365.9 581 L 300.1 581 C 285.75 581 274 569.26 274 554.9 L 274 552.1 C 274 537.75 285.74 526 300.1 526 L 365.9 526 C 380.25 526 392 537.74 392 552.1 L 392 554.9 C 392 569.26 380.26 581 365.9 581 Z"
            fill="#003144"/>
        <path
            id="path_52"
            d="M 365.9 626 L 300.1 626 C 285.75 626 274 614.26 274 599.9 L 274 597.1 C 274 582.75 285.74 571 300.1 571 L 365.9 571 C 380.25 571 392 582.74 392 597.1 L 392 599.9 C 392 614.26 380.26 626 365.9 626 Z"
            fill="#003144"/>
        <path
            id="path_53"
            d="M 365.9 671 L 300.1 671 C 285.75 671 274 659.26 274 644.9 L 274 642.1 C 274 627.75 285.74 616 300.1 616 L 365.9 616 C 380.25 616 392 627.74 392 642.1 L 392 644.9 C 392 659.26 380.26 671 365.9 671 Z"
            fill="#003144"/>
        <path
            id="path_54"
            d="M 365.9 716 L 300.1 716 C 285.75 716 274 704.26 274 689.9 L 274 687.1 C 274 672.75 285.74 661 300.1 661 L 365.9 661 C 380.25 661 392 672.74 392 687.1 L 392 689.9 C 392 704.26 380.26 716 365.9 716 Z"
            fill="#003144"/>
    </g>
    <g id="group_9">
        <path
            id="path_55"
            d="M 755.9 411 L 690.1 411 C 675.75 411 664 399.26 664 384.9 L 664 382.1 C 664 367.75 675.74 356 690.1 356 L 755.9 356 C 770.25 356 782 367.74 782 382.1 L 782 384.9 C 782 399.26 770.26 411 755.9 411 Z"
            fill="#003144"/>
        <path
            id="path_56"
            d="M 755.9 456 L 690.1 456 C 675.75 456 664 444.26 664 429.9 L 664 427.1 C 664 412.75 675.74 401 690.1 401 L 755.9 401 C 770.25 401 782 412.74 782 427.1 L 782 429.9 C 782 444.26 770.26 456 755.9 456 Z"
            fill="#003144"/>
        <path
            id="path_57"
            d="M 755.9 501 L 690.1 501 C 675.75 501 664 489.26 664 474.9 L 664 472.1 C 664 457.75 675.74 446 690.1 446 L 755.9 446 C 770.25 446 782 457.74 782 472.1 L 782 474.9 C 782 489.26 770.26 501 755.9 501 Z"
            fill="#003144"/>
        <path
            id="path_58"
            d="M 755.9 546 L 690.1 546 C 675.75 546 664 534.26 664 519.9 L 664 517.1 C 664 502.75 675.74 491 690.1 491 L 755.9 491 C 770.25 491 782 502.74 782 517.1 L 782 519.9 C 782 534.26 770.26 546 755.9 546 Z"
            fill="#003144"/>
        <path
            id="path_59"
            d="M 755.9 591 L 690.1 591 C 675.75 591 664 579.26 664 564.9 L 664 562.1 C 664 547.75 675.74 536 690.1 536 L 755.9 536 C 770.25 536 782 547.74 782 562.1 L 782 564.9 C 782 579.26 770.26 591 755.9 591 Z"
            fill="#003144"/>
        <path
            id="path_60"
            d="M 755.9 636 L 690.1 636 C 675.75 636 664 624.26 664 609.9 L 664 607.1 C 664 592.75 675.74 581 690.1 581 L 755.9 581 C 770.25 581 782 592.74 782 607.1 L 782 609.9 C 782 624.26 770.26 636 755.9 636 Z"
            fill="#003144"/>
        <path
            id="path_61"
            d="M 755.9 681 L 690.1 681 C 675.75 681 664 669.26 664 654.9 L 664 652.1 C 664 637.75 675.74 626 690.1 626 L 755.9 626 C 770.25 626 782 637.74 782 652.1 L 782 654.9 C 782 669.26 770.26 681 755.9 681 Z"
            fill="#003144"/>
        <path
            id="path_62"
            d="M 755.9 726 L 690.1 726 C 675.75 726 664 714.26 664 699.9 L 664 697.1 C 664 682.75 675.74 671 690.1 671 L 755.9 671 C 770.25 671 782 682.74 782 697.1 L 782 699.9 C 782 714.26 770.26 726 755.9 726 Z"
            fill="#003144"/>
    </g>
    <path
        id="path_63"
        d="M 631.16 381.16 L 680.59 377.89 L 711.88 334.86 L 687.57 271.17 L 358.98 288.97 L 365.64 395 L 575.16 384.67 C 579.9 384.37 583.85 380.93 584.8 376.28 L 596.83 317.21 C 597.09 315.91 598.89 315.78 599.35 317.01 L 620.64 374.33 C 622.26 378.68 626.53 381.45 631.16 381.16 Z"
        fill="#003144"/>
    <path
        id="path_64"
        d="M 660.6 379.27 L 713.79 375.93 C 718.77 375.62 722.84 371.85 723.54 366.91 C 727.26 340.73 732.82 260.99 670.33 225.67 C 645.03 211.37 568.58 212.65 568.58 212.65 L 660.6 379.27 Z"
        fill="#003144"/>
    <path
        id="path_65"
        d="M 736.86 373.67 C 736.72 373.67 736.59 373.66 736.45 373.65 C 734.29 373.42 732.71 371.49 732.94 369.32 C 739.63 305.07 716.42 270.3 701.99 255.29 C 677.19 229.5 639.02 218.08 588.53 221.35 C 586.35 221.5 584.48 219.84 584.34 217.67 C 584.2 215.5 585.85 213.62 588.02 213.48 C 640.93 210.06 681.19 222.28 707.67 249.82 C 723.05 265.81 747.8 302.71 740.78 370.13 C 740.56 372.16 738.85 373.67 736.86 373.67 Z"
        fill="#003144"/>
    <path
        id="path_66"
        d="M 345 233 L 716 233 L 716 293 L 345 293 L 345 233 Z"
        fill="#003144"/>
    <g id="group_10">
        <path
            id="path_67"
            d="M 490.37 443.36 C 492.34 443.42 494.29 442.49 495.45 440.72 C 497.22 438.02 496.47 434.39 493.76 432.61 C 468.74 416.21 442.52 415.26 415.8 429.77 C 412.96 431.31 411.91 434.87 413.45 437.71 C 414.99 440.55 418.55 441.6 421.39 440.06 C 444.34 427.59 465.91 428.36 487.34 442.4 C 488.28 443.02 489.32 443.33 490.37 443.36 Z"
            fill="#003144"/>
    </g>
    <g id="group_11">
        <path
            id="path_68"
            d="M 652.47 447.69 C 654.43 447.88 656.44 447.08 657.71 445.39 C 659.66 442.81 659.14 439.14 656.56 437.19 C 632.68 419.18 606.58 416.49 578.96 429.21 C 576.02 430.56 574.74 434.04 576.09 436.98 C 577.44 439.92 580.92 441.2 583.86 439.85 C 607.58 428.93 629.06 431.12 649.51 446.55 C 650.4 447.21 651.43 447.59 652.47 447.69 Z"
            fill="#003144"/>
    </g>
    <path
        id="path_69"
        d="M 274 372.1 L 285.5 309.92 L 353 323.06 L 313.5 395 Z"
        fill="#103042"/>
    <path
        id="path_70"
        d="M 769.5 302.86 L 782 382.1 L 742 383.5 L 739.16 314.82 Z"
        fill="#103042"/>
    <g id="group_12">
        <path
            id="path_71"
            d="M 514 214 C 458.25 214 409.13 202.56 380.23 185.18 C 374.53 188.4 369.02 191.79 363.72 195.36 C 386.96 219.72 445.48 237 514 237 C 593.69 237 659.85 213.62 672.72 182.93 C 668.56 180.68 664.29 178.53 659.95 176.47 C 634.31 198.64 578.6 214 514 214 Z"
            fill="#4166ba"/>
    </g>
</svg>
