<svg
    xmlns="http://www.w3.org/2000/svg"
    viewBox="0 0 1080 1080"
    id="vector">
    <path
        id="path"
        d="M 0 0 L 1080 0 L 1080 1080 L 0 1080 L 0 0 Z"
        fill="#3ddb85"/>
    <g id="group">
        <path
            id="path_1"
            d="M 435.89 669 L 319.11 669 C 290.02 669 266.91 644.52 268.59 615.48 L 282.74 370.68 C 284.29 343.91 306.45 323 333.26 323 L 421.74 323 C 448.55 323 470.71 343.91 472.26 370.68 L 486.41 615.48 C 488.09 644.52 464.98 669 435.89 669 Z"
            fill="#f86734"/>
        <path
            id="path_2"
            d="M 760.89 669 L 644.11 669 C 615.02 669 591.91 644.52 593.59 615.48 L 607.74 370.68 C 609.29 343.91 631.45 323 658.26 323 L 746.74 323 C 773.55 323 795.71 343.91 797.26 370.68 L 811.41 615.48 C 813.09 644.52 789.98 669 760.89 669 Z"
            fill="#f86734"/>
    </g>
    <g id="group_1">
        <path
            id="path_3"
            d="M 678.9 868.59 C 644.08 859.78 647.89 747.23 647.89 747.23 L 441.92 734 C 441.92 734 443.6 857.1 414.79 868.59 C 401.97 873.7 322.64 887.82 322.64 888.26 C 322.64 983.37 469.04 1034.25 550.18 1034.22 C 630.86 1034.19 777.35 983.37 777.35 890.48 C 777.35 889.78 753.35 884.78 728.16 879.46 C 709.13 875.45 689.42 871.25 678.9 868.59 Z"
            fill="#2c80f9"/>
    </g>
    <g id="group_2">
        <path
            id="path_4"
            d="M 222.92 1187.51 L 870.52 1187.51 L 877.89 1081.43 C 882.95 964.84 789.17 867.87 672.48 869.01 L 410.88 871.57 C 294.19 872.71 202.33 971.5 209.66 1087.96 L 222.92 1187.51 Z"
            fill="#163a57"/>
    </g>
    <g id="group_3">
        <path
            id="path_5"
            d="M 704.85 1187.51 L 1018.9 1187.51 C 883.01 899.17 769.55 865.56 651.7 869.66 C 590.39 871.79 633.87 1114.42 633.87 1114.42 L 704.85 1187.51 Z"
            fill="#163a57"/>
    </g>
    <g id="group_4">
        <path
            id="path_6"
            d="M 861.34 1187.51 L 865.14 1055.73 L 856.61 1055.49 L 852.81 1187.51 Z"
            fill="#d6f0ff"/>
    </g>
    <path
        id="path_7"
        d="M 375.15 1187.51 L 446.13 1114.42 C 446.13 1114.42 489.61 871.8 428.3 869.66 C 310.45 865.56 196.99 899.16 61.1 1187.51 L 375.15 1187.51 Z"
        fill="#163a57"/>
    <g id="group_5">
        <path
            id="path_8"
            d="M 243.39 1187.51 L 239.59 1055.49 L 231.06 1055.73 L 234.86 1187.51 Z"
            fill="#d6f0ff"/>
    </g>
    <path
        id="path_9"
        d="M 371.42 870.01 L 388.32 926.42 C 391.09 935.67 399.6 942 409.25 942 L 670.74 942 C 680.39 942 688.9 935.67 691.67 926.42 L 708.57 870.01 C 712.77 855.99 702.27 841.88 687.64 841.88 L 392.34 841.88 C 377.72 841.89 367.22 855.99 371.42 870.01 Z"
        fill="#f86734"/>
    <path
        id="path_10"
        d="M 521.36 1006.47 L 483.64 936.2 C 477.05 923.92 486.22 909.12 500.15 909.55 L 579.87 912.01 C 593.8 912.44 602.03 927.79 594.7 939.63 L 552.71 1007.43 C 545.36 1019.29 527.95 1018.75 521.36 1006.47 Z"
        fill="#f86734"/>
    <g id="group_6">
        <path
            id="path_11"
            d="M 466.82 857 L 409.17 857 C 395.82 857 384.99 846.18 384.99 832.82 L 384.99 813.17 C 384.99 799.82 395.81 788.99 409.17 788.99 L 466.82 788.99 C 480.17 788.99 491 799.81 491 813.17 L 491 832.82 C 491 846.18 480.18 857 466.82 857 Z"
            fill="#163a57"/>
        <path
            id="path_12"
            d="M 670.82 857 L 613.17 857 C 599.82 857 588.99 846.18 588.99 832.82 L 588.99 813.17 C 588.99 799.82 599.81 788.99 613.17 788.99 L 670.82 788.99 C 684.17 788.99 695 799.81 695 813.17 L 695 832.82 C 695 846.18 684.18 857 670.82 857 Z"
            fill="#163a57"/>
    </g>
    <path
        id="path_13"
        d="M 590.97 185 L 541 185 L 539 185 L 489.03 185 C 392.36 185 314 263.36 314 360.03 L 314 580.97 C 314 677.64 392.36 756 489.03 756 L 539 756 L 541 756 L 590.97 756 C 687.64 756 766 677.64 766 580.97 L 766 360.03 C 766 263.36 687.64 185 590.97 185 Z"
        fill="#163a57"/>
    <path
        id="path_14"
        d="M 541 185 L 539 185 L 489.03 185 C 461.3 185 435.07 191.46 411.77 202.94 L 398.57 350.75 C 396.11 378.28 417.8 402 445.44 402 L 626.54 402 C 654.18 402 675.87 378.29 673.41 350.75 L 659.88 199.1 C 638.73 190.03 615.44 185 590.97 185 L 541 185 Z"
        fill="#537de9"/>
    <path
        id="path_15"
        d="M 607.42 372 L 464.58 372 C 442.78 372 425.67 353.3 427.61 331.58 L 440.98 181.82 C 442.69 162.68 458.73 148 477.95 148 L 594.05 148 C 613.27 148 629.31 162.67 631.02 181.82 L 644.39 331.58 C 646.33 353.3 629.22 372 607.42 372 Z"
        fill="#f86734"/>
    <path
        id="path_16"
        d="M 460.2 478.26 C 469.302 478.26 476.68 490.908 476.68 506.51 C 476.68 522.112 469.302 534.76 460.2 534.76 C 451.098 534.76 443.72 522.112 443.72 506.51 C 443.72 490.908 451.098 478.26 460.2 478.26 Z"
        fill="#d6f0ff"/>
    <path
        id="path_17"
        d="M 619.8 478.26 C 628.902 478.26 636.28 490.908 636.28 506.51 C 636.28 522.112 628.902 534.76 619.8 534.76 C 610.698 534.76 603.32 522.112 603.32 506.51 C 603.32 490.908 610.698 478.26 619.8 478.26 Z"
        fill="#d6f0ff"/>
    <g id="group_7">
        <path
            id="path_18"
            d="M 563 592.5 C 562.68 608.58 549.83 622 533.5 622 C 517.17 622 504.32 608.58 504 592.5 C 503.87 586.07 493.87 586.05 494 592.5 C 494.42 613.96 511.68 632.04 533.5 632 C 555.32 631.96 572.58 614.02 573 592.5 C 573.13 586.06 563.13 586.06 563 592.5 L 563 592.5 Z"
            fill="#d6f0ff"/>
    </g>
</svg>
