<svg
    xmlns="http://www.w3.org/2000/svg"
    viewBox="0 0 1080 1080"
    id="vector">
    <path
        id="path"
        d="M 0 0 L 1080 0 L 1080 1080 L 0 1080 L 0 0 Z"
        fill="#3ddb85"/>
    <g id="group">
        <path
            id="path_1"
            d="M 825.02 1134.48 L 838.28 1036.77 L 833.54 1036.31 L 820.22 1134.48 Z"
            fill="#d33916"/>
    </g>
    <g id="group_1">
        <path
            id="path_2"
            d="M 992.7 1134.48 L 909.61 936.31 L 729.43 989.75 L 790.11 1134.48 Z"
            fill="#ffae5d"/>
    </g>
    <g id="group_2">
        <path
            id="path_3"
            d="M 992.7 1134.48 L 909.61 936.31 L 729.43 989.75 L 790.11 1134.48 Z"
            fill="#ff9954"/>
    </g>
    <g id="group_3">
        <path
            id="path_4"
            d="M 572.35 1134.48 L 824.88 1134.48 C 907.34 1092.69 943.36 1005.37 905.42 928.27 C 863.61 843.29 747.81 802.9 646.76 838.06 C 545.71 873.22 399.54 962.49 441.35 1047.47 C 459.76 1084.89 511.54 1115.23 572.35 1134.48 Z"
            fill="#ff5d1a"/>
    </g>
    <g id="group_4">
        <path
            id="path_5"
            d="M 1052.87 1134.48 L 871.39 881.66 L 687.26 1035.91 L 771.58 1134.48 Z"
            fill="#ff5d1a"/>
    </g>
    <g id="group_5">
        <path
            id="path_6"
            d="M 838.12 1134.48 L 789.5 992.3 L 192.49 991.07 L 203.13 1134.48 Z"
            fill="#ff5d1a"/>
    </g>
    <g id="group_6">
        <path
            id="path_7"
            d="M 322.99 1134.48 L 386.31 1030.71 L 216.32 957.34 L 108.23 1134.48 Z"
            fill="#ffae5d"/>
    </g>
    <g id="group_7">
        <path
            id="path_8"
            d="M 250.72 1134.48 L 440.77 1134.48 C 526.02 1095.04 604.89 1011.23 604.89 943.48 C 604.89 851.51 420.62 823.02 350.23 823.02 C 240.88 823.02 152.23 898.52 152.23 990.49 C 152.22 1051.95 191.81 1105.63 250.72 1134.48 Z"
            fill="#ff5d1a"/>
        <path
            id="path_9"
            d="M 363.73 1134.48 L 383.66 1107.61 L 173.78 913.89 L 74.77 1084.19 C 74.77 1084.19 59.71 1110.94 46.94 1134.49 L 363.73 1134.49 Z"
            fill="#ff5d1a"/>
        <path
            id="path_10"
            d="M 242.21 1134.48 L 265.59 984.43 C 265.85 982.78 264.47 981.27 262.51 981.05 C 260.55 980.84 258.75 982 258.5 983.64 L 234.99 1134.48 L 242.21 1134.48 Z"
            fill="#dd4b19"/>
    </g>
    <g id="group_8">
        <path
            id="path_11"
            d="M 623.42 809.49 C 598.91 803.29 601.59 702.21 601.59 702.21 L 456.58 692.9 C 456.58 692.9 457.77 801.41 437.48 809.49 C 428.46 813.09 372.61 823.03 372.61 823.34 C 372.61 890.3 475.68 926.12 532.81 926.1 C 589.61 926.08 692.75 890.3 692.75 824.9 C 692.75 824.41 675.85 820.89 658.12 817.14 C 644.71 814.32 630.83 811.36 623.42 809.49 Z"
            fill="#ffae5d"/>
        <path
            id="path_12"
            d="M 521.94 869.64 C 522 869.64 522.06 869.64 522.12 869.63 L 553.77 867.74 C 555.43 867.64 556.69 866.22 556.6 864.56 C 556.5 862.9 555.07 861.64 553.42 861.73 L 521.77 863.62 C 520.11 863.72 518.85 865.14 518.94 866.8 C 519.03 868.41 520.36 869.64 521.94 869.64 Z"
            fill="#da803a"/>
    </g>
    <g id="group_9">
        <path
            id="path_13"
            d="M 783.86 862.61 L 827.14 866.56 L 873.25 912.46 L 778.21 967.07 L 702 1061.24 L 608.84 979.73 Z"
            fill="#ff5d1a"/>
    </g>
    <g id="group_10">
        <path
            id="path_14"
            d="M 602 714.65 C 602 714.65 601.51 727.87 603 748 C 510.63 741.28 455 715 455 715 L 602 714.65 Z"
            fill="#db8c52"/>
    </g>
    <g id="group_11">
        <path
            id="path_15"
            d="M 835.83 1134.48 L 843.05 1134.48 L 825.15 1019.64 C 824.89 1017.99 823.09 1016.83 821.14 1017.05 C 819.18 1017.27 817.8 1018.78 818.06 1020.43 L 835.83 1134.48 Z"
            fill="#dd4b19"/>
    </g>
    <g id="group_12">
        <path
            id="path_16"
            d="M 850.13 1134.48 L 865.39 1051.16 C 865.69 1049.52 864.35 1047.98 862.4 1047.73 C 860.45 1047.48 858.62 1048.6 858.32 1050.25 L 842.89 1134.49 L 850.13 1134.49 Z"
            fill="#dd4b19"/>
    </g>
    <g id="group_13">
        <path
            id="path_17"
            d="M 447.06 397 L 335.86 397 C 329.31 397 324.01 391.69 324.01 385.15 L 324.01 159.85 C 324.01 153.3 329.32 148 335.86 148 L 427.16 148 C 433.3 148 438.42 152.69 438.96 158.81 L 458.87 384.11 C 459.47 391.04 454.01 397 447.06 397 Z"
            fill="#103042"/>
        <path
            id="path_18"
            d="M 560.06 422 L 449.74 422 C 442.86 422 437.42 416.16 437.92 409.29 L 454.21 184 C 454.66 177.8 459.82 173 466.03 173 L 540.15 173 C 546.29 173 551.41 177.69 551.95 183.81 L 571.86 409.11 C 572.47 416.04 567.01 422 560.06 422 Z"
            fill="#103042"/>
        <path
            id="path_19"
            d="M 725.52 397 L 553.17 397 C 546.13 397 540.64 390.9 541.38 383.9 L 565.21 158.6 C 565.85 152.57 570.93 148 577 148 L 696.39 148 C 702.35 148 707.38 152.42 708.14 158.33 L 737.27 383.63 C 738.19 390.72 732.67 397 725.52 397 Z"
            fill="#103042"/>
        <path
            id="path_20"
            d="M 633.72 397 L 744.15 397 C 750.7 397 756 391.69 756 385.15 L 756 173.99 C 756 163.83 744.05 158.38 736.38 165.04 L 645.32 244.12 C 643.18 245.98 641.78 248.54 641.37 251.35 L 622 383.43 C 620.94 390.58 626.49 397 633.72 397 Z"
            fill="#103042"/>
        <path
            id="path_21"
            d="M 632.76 715 L 447.24 715 C 379.18 715 324 659.82 324 591.76 L 324 319 L 756 319 L 756 591.76 C 756 659.82 700.82 715 632.76 715 Z"
            fill="#ffae5d"/>
        <path
            id="path_22"
            d="M 475.03 397 L 505 427 C 505 427 516 385 559 379 C 602 373 723 429 756 422 L 756 304 L 324 304 L 324 408 C 324 408 424.07 384 475.03 397 Z"
            fill="#103042"/>
    </g>
    <path
        id="path_23"
        d="M 319.5 499 C 334.688 499 347 522.057 347 550.5 C 347 578.943 334.688 602 319.5 602 C 304.312 602 292 578.943 292 550.5 C 292 522.057 304.312 499 319.5 499 Z"
        fill="#ffae5d"/>
    <path
        id="path_24"
        d="M 756.5 499 C 771.688 499 784 522.057 784 550.5 C 784 578.943 771.688 602 756.5 602 C 741.312 602 729 578.943 729 550.5 C 729 522.057 741.312 499 756.5 499 Z"
        fill="#ffae5d"/>
    <path
        id="path_25"
        d="M 783.79 1159.31 L 727.22 1146.56 C 722.37 1145.47 719.32 1140.65 720.41 1135.79 L 789.1 830.96 C 790.32 825.57 796.06 822.53 801.2 824.56 L 855.82 846.15 C 859.95 847.78 862.27 852.18 861.3 856.51 L 794.56 1152.49 C 793.47 1157.36 788.65 1160.41 783.79 1159.31 Z"
        fill="#e54e1a"/>
    <path
        id="path_26"
        d="M 306.9 1161.36 L 361.63 1143.73 C 366.33 1142.22 368.9 1137.15 367.37 1132.42 L 271.55 835 C 269.85 829.74 263.9 827.22 259.01 829.69 L 207.01 855.95 C 203.08 857.94 201.19 862.51 202.55 866.74 L 295.63 1155.52 C 297.16 1160.26 302.2 1162.87 306.9 1161.36 Z"
        fill="#e54e1a"/>
    <path
        id="path_27"
        d="M 368 962 L 698 962 L 698 1035 L 368 1035 L 368 962 Z"
        fill="#d8421a"/>
    <path
        id="path_28"
        d="M 702.79 1141.31 L 646.21 1128.56 C 641.36 1127.47 638.32 1122.66 639.4 1117.81 L 705.33 822.46 C 706.29 818.15 710.23 815.18 714.63 815.43 L 773.94 818.8 C 779.5 819.12 783.44 824.34 782.22 829.77 L 713.56 1134.49 C 712.47 1139.36 707.65 1142.41 702.79 1141.31 Z"
        fill="#e54e1a"/>
    <path
        id="path_29"
        d="M 385.29 1136.36 L 440.03 1118.72 C 444.72 1117.21 447.29 1112.16 445.78 1107.42 L 353.55 819.2 C 352.21 815 348.04 812.38 343.71 813.01 L 285.41 821.55 C 279.95 822.35 276.53 827.9 278.24 833.2 L 374.02 1130.51 C 375.55 1135.26 380.59 1137.87 385.29 1136.36 Z"
        fill="#e54e1a"/>
    <g id="group_14">
        <path
            id="path_30"
            d="M 538.41 586.96 C 548.82 586.96 562.73 582.29 563.92 568.51 C 564.79 558.36 558.41 549.93 554.53 545.81 C 553.52 544.74 552.98 543.24 553.04 541.71 L 553.95 519.22 C 554.03 517.17 552.44 515.44 550.39 515.36 C 548.35 515.26 546.61 516.87 546.53 518.92 L 545.62 541.41 C 545.48 544.93 546.75 548.39 549.12 550.91 C 552.15 554.13 557.14 560.61 556.51 567.88 C 556.15 572.05 553.77 575.2 549.43 577.25 C 545.14 579.28 539.94 579.73 536.51 579.47 C 534.48 579.32 532.68 580.85 532.53 582.9 C 532.38 584.95 533.91 586.73 535.96 586.88 C 536.76 586.93 537.57 586.96 538.41 586.96 Z"
            fill="#da803a"/>
    </g>
    <g id="group_15">
        <path
            id="path_31"
            d="M 658.52 473.98 C 659.54 473.98 660.54 473.54 661.23 472.69 C 662.44 471.19 662.2 469 660.71 467.8 C 650.52 459.58 617.72 454.23 602.87 460.49 C 601.1 461.24 600.27 463.28 601.02 465.05 C 601.77 466.82 603.81 467.65 605.58 466.9 C 618.56 461.43 648.7 467.04 656.35 473.22 C 656.98 473.73 657.75 473.98 658.52 473.98 Z"
            fill="#003144"/>
    </g>
    <path
        id="path_32"
        d="M 518.05 735.32 L 491.07 712.01 C 483.08 705.11 487.96 692 498.52 692 L 552.49 692 C 563.04 692 567.92 705.11 559.94 712.01 L 532.96 735.32 C 528.67 739.01 522.33 739.01 518.05 735.32 Z"
        fill="#103042"/>
    <g id="group_16">
        <path
            id="path_33"
            d="M 551.17 668.82 C 553.49 668.37 555.19 666.27 555.06 663.84 C 554.92 661.19 552.66 659.15 550 659.28 C 523.73 660.65 504.64 645.67 504.45 645.52 C 502.38 643.87 499.35 644.2 497.69 646.27 C 496.03 648.34 496.36 651.36 498.42 653.03 C 499.31 653.74 520.44 670.47 550.51 668.9 C 550.73 668.88 550.95 668.86 551.17 668.82 Z"
            fill="#a53835"/>
    </g>
    <path
        id="path_34"
        d="M 532.65 599.88 C 491.54 599.88 468.9 609.82 468.9 627.88 L 468.9 637.22 C 468.9 638.28 469.51 639.24 470.45 639.72 C 470.84 639.92 471.27 640.02 471.7 640.02 C 472.29 640.02 472.89 639.83 473.38 639.46 C 473.46 639.4 482.7 632.7 499.88 634.41 C 507.34 635.16 513.22 635.52 517.87 635.52 C 522.98 635.52 526.78 635.09 529.51 634.2 C 530.85 633.76 531.88 633.22 532.69 632.61 C 536.72 635.46 544.01 635.52 547.41 635.52 C 552.06 635.52 557.95 635.16 565.4 634.41 C 582.5 632.71 591.76 639.36 591.9 639.46 C 592.39 639.83 592.99 640.03 593.59 640.03 C 594.01 640.03 594.43 639.93 594.83 639.74 C 595.79 639.26 596.39 638.29 596.39 637.23 L 596.39 627.89 C 596.4 609.82 573.76 599.88 532.65 599.88 L 532.65 599.88 Z"
        fill="#182f40"/>
    <path
        id="path_35"
        d="M 762 600.51 L 762 420.33 C 762 399.86 739.42 387.45 722.14 398.42 L 710.57 405.77 C 672.26 430.08 627.82 443 582.45 443 L 498.55 443 C 453.18 443 408.74 430.08 370.44 405.76 L 358.87 398.41 C 341.59 387.44 319.01 399.85 319.01 420.32 L 319.01 600.5 C 319.01 621.72 342.1 634.87 360.35 624.05 L 483.28 551.18 C 500.6 540.91 520.37 535.49 540.5 535.49 L 540.5 535.49 C 560.64 535.49 580.4 540.91 597.72 551.18 L 720.65 624.05 C 738.91 634.88 762 621.73 762 600.51 Z"
        fill="#ff5d1a"/>
    <g id="group_17">
        <path
            id="path_36"
            d="M 465 488.26 C 474.102 488.26 481.48 500.908 481.48 516.51 C 481.48 532.112 474.102 544.76 465 544.76 C 455.898 544.76 448.52 532.112 448.52 516.51 C 448.52 500.908 455.898 488.26 465 488.26 Z"
            fill="#4f2521"/>
        <path
            id="path_37"
            d="M 615 488.26 C 624.102 488.26 631.48 500.908 631.48 516.51 C 631.48 532.112 624.102 544.76 615 544.76 C 605.898 544.76 598.52 532.112 598.52 516.51 C 598.52 500.908 605.898 488.26 615 488.26 Z"
            fill="#4f2521"/>
    </g>
    <g id="group_18">
        <path
            id="path_38"
            d="M 490.39 472.35 C 491.52 472.35 492.63 471.8 493.3 470.78 C 494.35 469.17 493.91 467.02 492.3 465.96 C 478.93 457.19 443.27 456.26 431.78 462.49 C 430.09 463.41 429.46 465.52 430.38 467.21 C 431.3 468.9 433.41 469.53 435.1 468.61 C 443.66 463.97 476.7 464.05 488.48 471.78 C 489.07 472.17 489.74 472.35 490.39 472.35 Z"
            fill="#003144"/>
    </g>
    <g id="group_19">
        <path
            id="path_39"
            d="M 586.45 472.69 C 585.33 472.69 584.23 472.14 583.57 471.12 C 582.53 469.51 582.97 467.36 584.56 466.3 C 597.79 457.53 633.1 456.6 644.47 462.83 C 646.14 463.75 646.76 465.86 645.86 467.55 C 644.95 469.24 642.86 469.87 641.19 468.95 C 632.71 464.31 600.01 464.39 588.34 472.12 C 587.75 472.51 587.1 472.69 586.45 472.69 Z"
            fill="#003144"/>
    </g>
</svg>
